{"title":"Welcome.to.the.Punch.2013.720p.BluRay.H264.AAC-PirateBG","uid":9056555,"size":1510336069,"categoryP":"video","categoryS":"hd___movies","magnet":"?xt=urn:btih:b465dbdc5b8d31f1f38e348ada39d9d6f3e7c177&amp;dn=Welcome.to.the.Punch.2013.720p.BluRay.H264.AAC-PirateBG&amp;tr=udp%3A%2F%2Ftracker.openbittorrent.com%3A80&amp;tr=udp%3A%2F%2Fopen.demonii.com%3A1337&amp;tr=udp%3A%2F%2Ftracker.coppersurfer.tk%3A6969&amp;tr=udp%3A%2F%2Fexodus.desync.com%3A6969","seeders":2,"leechers":0,"uploader":"R0thschild","files":-1,"time":1381962479,"description":"\nWelcome to the Punch\n\nGenre: Action, Adventure, Crime\nYear: 2013\nCountry: USA,Great Britain\nRuntime: 99 min\nDirector: Eran Creevy\nCast: James McAvoy,Andrea Riseborough,Mark Strong,David Morrissey,Jason Flemyng,Peter Mullan\n\n.: Plot :.\nEx-criminal Jacob Sternwood is forced to return to London when his son is involved in a heist gone wrong. This gives his nemesis, detective Max Lewinsky, one last chance to catch the man he's always been after.\n\nGallery: &lt;a href=&quot;\nhttp://imgsure.com/?g=306977&quot; rel=&quot;nofollow&quot; target=&quot;_NEW&quot;&gt;\nhttp://imgsure.com/?g=306977&lt;/a&gt;\n\nGeneral\nFormat : MPEG-4\nFormat profile : Base Media / Version 2\nCodec ID : mp42\nFile size : 1.40 GiB\nDuration : 1h 39mn\nOverall bit rate mode : Variable\nOverall bit rate : 2 015 Kbps\nEncoded date : UTC 2013-10-16 17:54:02\nTagged date : UTC 2013-10-16 17:54:02\nWriting application : Transmageddon encoder\n\nVideo\nID : 1\nFormat : AVC\nFormat/Info : Advanced Video Codec\nFormat profile : &lt;a class=&quot;__cf_email__&quot; href=&quot;/cdn-cgi/l/email-protection&quot; data-cfemail=&quot;165b777f78565a253827&quot;&gt;[email&amp;#160;protected]&lt;/a&gt;&lt;script cf-hash='f9e31' type=&quot;text/javascript&quot;&gt;\n/* &lt;![CDATA[ */!function(){try{var t=&quot;currentScript&quot;in document?document.currentScript:function(){for(var t=document.getElementsByTagName(&quot;script&quot;),e=t.length;e--;)if(t[e].getAttribute(&quot;cf-hash&quot;))return t[e]}();if(t&amp;&amp;t.previousSibling){var e,r,n,i,c=t.previousSibling,a=c.getAttribute(&quot;data-cfemail&quot;);if(a){for(e=&quot;&quot;,r=parseInt(a.substr(0,2),16),n=2;a.length-n;n+=2)i=parseInt(a.substr(n,2),16)^r,e+=String.fromCharCode(i);e=document.createTextNode(e),c.parentNode.replaceChild(e,c)}}}catch(u){}}();/* ]]&gt; */&lt;/script&gt;\nFormat settings, CABAC : Yes\nFormat settings, ReFrames : 4 frames\nCodec ID : avc1\nCodec ID/Info : Advanced Video Coding\nDuration : 1h 39mn\nBit rate : 1 882 Kbps\nNominal bit rate : 2 048 Kbps\nMaximum bit rate : 16.9 Mbps\nWidth : 1 280 pixels\nHeight : 534 pixels\nDisplay aspect ratio : 2.40:1\nFrame rate mode : Variable\nFrame rate : 23.976 fps\nMinimum frame rate : 23.762 fps\nMaximum frame rate : 24.000 fps\nColor space : YUV\nChroma subsampling : 4:2:0\nBit depth : 8 bits\nScan type : Progressive\nBits/(Pixel*Frame) : 0.115\nStream size : 1.31 GiB (93%)\nLanguage : English\nEncoded date : UTC 2013-10-16 17:54:03\nTagged date : UTC 2013-10-16 17:54:03\n\nAudio\nID : 2\nFormat : AAC\nFormat/Info : Advanced Audio Codec\nFormat profile : LC\nCodec ID : 40\nDuration : 1h 39mn\nBit rate mode : Variable\nBit rate : 128 Kbps\nMaximum bit rate : 246 Kbps\nChannel(s) : 1 channel\nChannel positions : Front: C\nSampling rate : 48.0 KHz\nCompression mode : Lossy\nStream size : 91.4 MiB (6%)\nLanguage : English\nEncoded date : UTC 2013-10-16 17:54:03\nTagged date : UTC 2013-10-16 17:54:03","torrent":{"xt":"urn:btih:b465dbdc5b8d31f1f38e348ada39d9d6f3e7c177","amp;dn":"Welcome.to.the.Punch.2013.720p.BluRay.H264.AAC-PirateBG","amp;tr":["udp%3A%2F%2Ftracker.openbittorrent.com%3A80","udp%3A%2F%2Fopen.demonii.com%3A1337","udp%3A%2F%2Ftracker.coppersurfer.tk%3A6969","udp%3A%2F%2Fexodus.desync.com%3A6969"],"infoHash":"b465dbdc5b8d31f1f38e348ada39d9d6f3e7c177","infoHashBuffer":{"type":"Buffer","data":[180,101,219,220,91,141,49,241,243,142,52,138,218,57,217,214,243,231,193,119]},"announce":[],"urlList":[]}}